# xmcd
#
# Track frame offsets: 
#        150
#        20837
#        41512
#        63060
#        83302
#        100912
#        121567
#        142467
#        164112
#        186230
#        207802
#
# Disc length: 3065 seconds
#
# Revision: 5
# Processed by: cddbd v1.5.2PL0 Copyright (c) Steve Scherf et al.
# Submitted via: ExactAudioCopyFreeDBPlugin 1.0
#
DISCID=930bf70b
DTITLE=REBECCA - Complete Edition Ⅱ
DYEAR=2000
DGENRE=JPop
TTITLE0=Stefanie (remixed edition)
TTITLE1=Love Passion (remixed edition)
TTITLE2=蜃気楼 (remixed edition)
TTITLE3=Monotone Boy (remixed edition)
TTITLE4=Motor Drive (remixed edition)
TTITLE5=White Sunday (remixed edition)
TTITLE6=Lonely Butterfly (remixed edition)
TTITLE7=Nervous But Glamorous (remixed edition)
TTITLE8=Noise From Your Heart (remixed edition)
TTITLE9=Super Girl (remixed edition)
TTITLE10=Cotton Love (remixed edition)
EXTD=YEAR: 2000
EXTT0=
EXTT1=
EXTT2=
EXTT3=
EXTT4=
EXTT5=
EXTT6=
EXTT7=
EXTT8=
EXTT9=
EXTT10=
PLAYORDER=
